<?xml version="1.0" encoding="UTF-8"?>
<svg version="1.1" xmlns="http://www.w3.org/2000/svg" width="72" height="72">
<path d="M0 0 C1.91015625 0.23046875 1.91015625 0.23046875 3.91015625 2.23046875 C3.91015625 3.22046875 3.91015625 4.21046875 3.91015625 5.23046875 C4.73515625 5.37484375 5.56015625 5.51921875 6.41015625 5.66796875 C11.50573292 7.94277976 14.6027233 11.80213967 17.91015625 16.23046875 C18.99951914 19.49855741 19.0491989 22.10725359 19.16015625 25.54296875 C19.44476651 31.09068606 19.44476651 31.09068606 22.47265625 35.48046875 C25.58052259 38.98677949 25.3464434 40.96218275 25.0859375 45.47265625 C24.99892578 46.34277344 24.99892578 46.34277344 24.91015625 47.23046875 C10.74958814 55.09745104 -5.90334191 55.00595744 -21.390625 51.1796875 C-24.31179458 50.15241658 -26.62199518 49.11115478 -29.08984375 47.23046875 C-30.07594884 44.18514421 -29.78621206 41.33443602 -29.08984375 38.23046875 C-27.84122022 36.82176528 -26.58683875 35.41514672 -25.25390625 34.0859375 C-23.55220357 31.37349195 -23.664804 28.96540669 -23.52734375 25.79296875 C-23.22736745 19.02427283 -22.25370855 15.46055398 -17.41015625 10.515625 C-14.38940488 7.76064789 -12.17062921 6.00009057 -8.08984375 5.23046875 C-7.94546875 4.59109375 -7.80109375 3.95171875 -7.65234375 3.29296875 C-6.50260822 -0.92272819 -3.96427455 0.0791416 0 0 Z " fill="#4D4F57" transform="translate(38.08984375,2.76953125)"/>
<path d="M0 0 C5.94 0 11.88 0 18 0 C17 7 17 7 15.4375 8.9375 C11.92820158 10.46719418 8.7120686 10.78651751 5 10 C2 7.8125 2 7.8125 0 5 C0 3.35 0 1.7 0 0 Z " fill="#4D4F57" transform="translate(27,59)"/>
</svg>
