<?xml version="1.0" encoding="UTF-8"?>
<svg version="1.1" xmlns="http://www.w3.org/2000/svg" width="72" height="72">
<path d="M0 0 C3.49029792 1.97277708 6.19844633 4.39689265 8 8 C7.9911693 11.31592816 7.86806096 14.62016015 7.7421875 17.93359375 C7.69887493 20.99156782 7.69887493 20.99156782 9.4921875 22.74609375 C9.98976563 23.15988281 10.48734375 23.57367188 11 24 C11.25 26.625 11.25 26.625 11 29 C10 30 10 30 7.625 30.25 C5 30 5 30 3.7265625 28.47265625 C2.01136973 26.69795946 2.01136973 26.69795946 -0.890625 26.91796875 C-1.99921875 27.00691406 -3.1078125 27.09585938 -4.25 27.1875 C-8.9453222 27.31850787 -11.64145018 27.24489203 -15.25 24.125 C-19.28195455 19.9932446 -19.44806914 16.49353944 -19.42578125 10.83984375 C-18.7569677 6.37904146 -16.40998318 3.80926076 -13 1 C-9.00469193 -0.99765403 -4.33153639 -0.64943255 0 0 Z M-10.9375 8.0625 C-12.6140629 11.11976176 -12.36528977 13.5906288 -12 17 C-11.08333333 19.08333333 -11.08333333 19.08333333 -9 20 C-5.5906288 20.36528977 -3.11976176 20.6140629 -0.0625 18.9375 C1.6140629 15.88023824 1.36528977 13.4093712 1 10 C0.08333333 7.91666667 0.08333333 7.91666667 -2 7 C-5.4093712 6.63471023 -7.88023824 6.3859371 -10.9375 8.0625 Z " fill="#4D4F57" transform="translate(61,42)"/>
<path d="M0 0 C19.8 0 39.6 0 60 0 C60 1.98 60 3.96 60 6 C40.2 6 20.4 6 0 6 C0 4.02 0 2.04 0 0 Z " fill="#4E5057" transform="translate(6,21)"/>
<path d="M0 0 C19.8 0 39.6 0 60 0 C60 1.98 60 3.96 60 6 C40.2 6 20.4 6 0 6 C0 4.02 0 2.04 0 0 Z " fill="#4E5057" transform="translate(6,9)"/>
<path d="M0 0 C12.87 0 25.74 0 39 0 C39 1.98 39 3.96 39 6 C26.13 6 13.26 6 0 6 C0 4.02 0 2.04 0 0 Z " fill="#4E5057" transform="translate(6,33)"/>
<path d="M0 0 C9.9 0 19.8 0 30 0 C30 1.98 30 3.96 30 6 C20.1 6 10.2 6 0 6 C0 4.02 0 2.04 0 0 Z " fill="#4E5057" transform="translate(6,57)"/>
<path d="M0 0 C9.9 0 19.8 0 30 0 C30 1.98 30 3.96 30 6 C20.1 6 10.2 6 0 6 C0 4.02 0 2.04 0 0 Z " fill="#4E5057" transform="translate(6,45)"/>
</svg>
