<?xml version="1.0" encoding="UTF-8"?>
<svg version="1.1" xmlns="http://www.w3.org/2000/svg" width="72" height="72">
<path d="M0 0 C1.46021611 0.88003008 2.90215377 1.79208167 4.3125 2.75 C5.67375 3.5853125 5.67375 3.5853125 7.0625 4.4375 C14.185239 11.75809286 16.62796377 19.53339098 16.70410156 29.48168945 C16.58622901 35.86046325 14.91138135 40.45135544 11.3125 45.75 C10.755625 46.6575 10.19875 47.565 9.625 48.5 C4.47793894 53.50795131 -2.37154728 57.88664338 -9.69995117 57.86352539 C-10.50055466 57.86344986 -11.30115814 57.86337433 -12.12602234 57.86329651 C-12.98548965 57.85813522 -13.84495697 57.85297394 -14.73046875 57.84765625 C-15.6140657 57.8462413 -16.49766266 57.84482635 -17.40803528 57.84336853 C-20.23039128 57.83777069 -23.05266797 57.82521861 -25.875 57.8125 C-27.78841031 57.80748472 -29.70182187 57.80292186 -31.61523438 57.79882812 C-36.30602014 57.78780197 -40.99674663 57.77053883 -45.6875 57.75 C-46.265625 55.36523438 -46.265625 55.36523438 -46.6875 52.75 C-45.4375 50.90625 -45.4375 50.90625 -43.6875 49.25 C-41.09213597 46.65839858 -41.09213597 46.65839858 -40.6875 43.125 C-41.33141516 41.59570149 -42.00768343 40.07942717 -42.72265625 38.58203125 C-45.27309311 31.09593117 -44.94912517 21.25102276 -41.5 14.125 C-40.60220091 12.64189543 -39.668051 11.17974197 -38.6875 9.75 C-38.006875 8.6775 -37.32625 7.605 -36.625 6.5 C-27.51064671 -3.34575201 -11.92297488 -5.70383746 0 0 Z " fill="#4D4F57" transform="translate(49.6875,8.25)"/>
</svg>
