<?xml version="1.0" encoding="UTF-8"?>
<svg version="1.1" xmlns="http://www.w3.org/2000/svg" width="72" height="72">
<path d="M0 0 C0.79470703 -0.020625 1.58941406 -0.04125 2.40820312 -0.0625 C7.44576775 -0.09583376 10.77409595 0.54936628 15.1875 3.25 C14.88345322 4.92225729 14.54121498 6.58753959 14.1875 8.25 C14.001875 9.44625 13.81625 10.6425 13.625 11.875 C12.1875 15.25 12.1875 15.25 10.34765625 16.29296875 C8.1875 17.0625 8.1875 17.0625 6.0625 17.64453125 C3.97111045 18.16265289 3.97111045 18.16265289 2.1875 20.25 C1.79723835 24.29403699 1.79723835 24.29403699 2.1875 28.25 C4.06827873 30.16256712 4.06827873 30.16256712 6.1875 31.25 C6.1875 31.91 6.1875 32.57 6.1875 33.25 C-2.0625 33.25 -10.3125 33.25 -18.8125 33.25 C-20.043894 30.78721199 -19.88409196 28.9704945 -19.8125 26.25 C-20.8025 28.56 -21.7925 30.87 -22.8125 33.25 C-24.81204746 33.29254356 -26.81291636 33.29080783 -28.8125 33.25 C-30.48661854 31.57588146 -30.10363801 29.61225375 -30.1875 27.3125 C-30.11835359 19.71627244 -27.25964475 14.22625713 -22.5 8.4375 C-15.12313756 2.43307708 -9.44298239 0.06038678 0 0 Z " fill="currentColor" transform="translate(35.8125,32.75)"/>
<path d="M0 0 C3.12578143 1.6720747 5.39281175 3.7856235 7 7 C7.51512617 11.09157355 7.94367269 15.23589546 5.953125 18.95703125 C3.55501226 21.85592636 1.60351712 23.79811835 -2.171875 24.2734375 C-9.98876369 24.58137554 -9.98876369 24.58137554 -13.5625 21.625 C-17.3057723 17.59378368 -17.39037018 14.90519941 -17.359375 9.55078125 C-16.78039966 5.44131496 -15.00085071 3.78650423 -12 1 C-8.27533151 -0.86233425 -4.05504687 -0.57130829 0 0 Z " fill="currentColor" transform="translate(41,6)"/>
<path d="M0 0 C1.98 0 3.96 0 6 0 C6 3.96 6 7.92 6 12 C9.96 12 13.92 12 18 12 C18 13.98 18 15.96 18 18 C14.04 18 10.08 18 6 18 C6 21.96 6 25.92 6 30 C4.02 30 2.04 30 0 30 C0 26.04 0 22.08 0 18 C-3.96 18 -7.92 18 -12 18 C-12 16.02 -12 14.04 -12 12 C-8.04 12 -4.08 12 0 12 C0 8.04 0 4.08 0 0 Z " fill="currentColor" transform="translate(54,42)"/>
</svg>
