<?xml version="1.0" encoding="UTF-8"?>
<svg version="1.1" xmlns="http://www.w3.org/2000/svg" width="132" height="132">
<path d="M0 0 C13.2064313 10.46202177 23.55343272 25.72040014 25.7265625 42.70703125 C27.08570966 63.26413212 24.06593946 80.55903395 10.9765625 97.08203125 C0.2528924 109.26360212 -15.29502703 118.78283882 -31.75488281 119.87109375 C-52.98144728 120.77724378 -70.2763243 116.72875856 -86.5859375 102.37109375 C-100.12287849 88.95220747 -106.49921203 72.50315742 -106.6484375 53.70703125 C-106.47966529 34.4477108 -99.93917324 18.4929934 -86.2734375 4.70703125 C-61.62920598 -16.68502895 -26.75823675 -18.74353815 0 0 Z " fill="#000000" transform="translate(106.2734375,12.29296875)"/>
<path d="M0 0 C0.66 0.66 1.32 1.32 2 2 C4.53640606 2.11925762 6.96955296 2.14054182 9.5 2.0625 C16.75867438 1.87933719 16.75867438 1.87933719 19 3 C19.66 1.68 20.32 0.36 21 -1 C27.95199625 -0.49440027 34.89810696 0.47703551 39.7265625 5.9609375 C41.41420069 8.56595849 42.72475484 11.16939802 44 14 C44.48726563 15.0725 44.97453125 16.145 45.4765625 17.25 C49.74276701 28.11809641 49.54072534 38.48504592 49 50 C46.79799468 51.32421964 44.58938174 52.63426729 42.375 53.9375 C41.75753906 54.31068359 41.14007813 54.68386719 40.50390625 55.06835938 C36.66602208 57.31049171 33.50788649 58.56308177 29 59 C25 54.25 25 54.25 25 52 C26.98 51.34 28.96 50.68 31 50 C31 49.34 31 48.68 31 48 C30.43796875 48.28875 29.8759375 48.5775 29.296875 48.875 C18.39688034 53.68972157 4.47470655 54.07113709 -6.75 50 C-8.18219228 49.36737519 -9.60735311 48.71548831 -11 48 C-11 48.66 -11 49.32 -11 50 C-9.02 50.66 -7.04 51.32 -5 52 C-6.07401108 54.91517292 -6.77810176 56.77810176 -9 59 C-13.50930964 58.67558923 -17.29946473 56.54083669 -21.25 54.5 C-21.88679688 54.17902344 -22.52359375 53.85804687 -23.1796875 53.52734375 C-27.84503517 51.15496483 -27.84503517 51.15496483 -29 50 C-29.88108701 33.37795458 -27.88269255 19.34602603 -19 5 C-16.27699517 2.4492669 -13.61342768 1.3223911 -10.0625 0.25 C-9.22847656 -0.01296875 -8.39445312 -0.2759375 -7.53515625 -0.546875 C-4.66638552 -1.05962909 -2.77815379 -0.84613821 0 0 Z " fill="#7C7C7C" transform="translate(56,37)"/>
<path d="M0 0 C3.4375 1 3.4375 1 5.4375 2.5625 C6.92927191 6.19869402 6.46216347 9.25878688 5.4375 13 C4.25 15 4.25 15 2.4375 16 C-0.5 16.5 -0.5 16.5 -3.5625 16 C-6.72446359 13.25408425 -7.47941332 11.59199258 -8.0625 7.4375 C-7.5625 4 -7.5625 4 -6 1.5 C-3.5625 0 -3.5625 0 0 0 Z " fill="#030303" transform="translate(53.5625,61)"/>
<path d="M0 0 C2.375 1.5 2.375 1.5 4 4 C4.61537233 6.8065579 4.65874393 9.19890623 4 12 C1.875 14.5625 1.875 14.5625 -1 16 C-4.125 16.0625 -4.125 16.0625 -7 15 C-9.74171008 11.99296314 -10.01573875 10.45642367 -9.875 6.375 C-9 3 -9 3 -7.8125 1.0625 C-5.04411529 -0.56034621 -3.14454533 -0.44922076 0 0 Z " fill="#030303" transform="translate(82,61)"/>
</svg>
