<?xml version="1.0" encoding="UTF-8"?>
<svg version="1.1" xmlns="http://www.w3.org/2000/svg" width="72" height="72">
<path d="M0 0 C3.12578143 1.6720747 5.39281175 3.7856235 7 7 C7.32060398 10.5761548 7.32438936 14.16124561 7.375 17.75 C7.41238281 18.74 7.44976562 19.73 7.48828125 20.75 C7.58716573 28.96839884 7.58716573 28.96839884 4.6015625 32.640625 C0.56941322 36.29740903 -2.14444015 36.39008284 -7.44921875 36.359375 C-11.55868504 35.78039966 -13.21349577 34.00085071 -16 31 C-17.92392191 27.15215617 -17.31529995 22.48327647 -17.375 18.25 C-17.41238281 17.26 -17.44976563 16.27 -17.48828125 15.25 C-17.58716573 7.03160116 -17.58716573 7.03160116 -14.6015625 3.359375 C-10.10597747 -0.71770212 -5.90750547 -0.83229786 0 0 Z " fill="#4D4F57" transform="translate(41,6)"/>
<path d="M0 0 C1.98 0 3.96 0 6 0 C6.15855469 0.72445313 6.31710938 1.44890625 6.48046875 2.1953125 C8.1116183 8.95421948 9.62334787 14.24433014 15.79296875 18.12890625 C20.31782537 19.91482311 25.23291346 19.51121572 30 19 C34.92679425 16.71255981 37.47648267 13.77665781 40 9 C40.8564194 6.0268622 41.48494954 3.04964091 42 0 C43.98 0 45.96 0 48 0 C48.51002996 6.91373949 48.22855446 12.31088633 44 18 C40.29306841 21.9236207 36.35447736 25.66138066 31 27 C29.68 27 28.36 27 27 27 C27 28.98 27 30.96 27 33 C29.97 33 32.94 33 36 33 C36 34.98 36 36.96 36 39 C28.08 39 20.16 39 12 39 C12 37.02 12 35.04 12 33 C14.97 33 17.94 33 21 33 C21 31.02 21 29.04 21 27 C19.96875 26.9175 18.9375 26.835 17.875 26.75 C10.57996142 25.33805705 6.254135 20.78668052 2 15 C-0.76892189 10.34317682 -0.18369246 5.25564551 0 0 Z " fill="#4D4F57" transform="translate(12,27)"/>
</svg>
