<?xml version="1.0" encoding="UTF-8"?>
<svg version="1.1" xmlns="http://www.w3.org/2000/svg" width="72" height="72">
<path d="M0 0 C9.04639513 5.57913567 13.908527 12.38183099 17.2421875 22.3828125 C18.06845132 34.31622931 17.41107588 43.57128029 9.6171875 53.1953125 C4.18792007 58.9505397 -3.22818689 63.06918348 -11.19921875 63.62109375 C-23.24388866 63.94983824 -31.71731144 62.22267899 -40.77734375 53.67578125 C-48.26197933 45.01013808 -49.43964168 35.32807787 -48.92822266 24.33886719 C-48.18067076 15.75808528 -43.12563921 8.8827923 -36.7578125 3.3828125 C-25.94147856 -3.33132664 -11.85132544 -5.70619373 0 0 Z M-35.7578125 26.3828125 C-35.92447917 28.8828125 -35.92447917 28.8828125 -35.7578125 31.3828125 C-34.6982248 32.66603797 -34.6982248 32.66603797 -32.2578125 32.5078125 C-29.8174002 32.66603797 -29.8174002 32.66603797 -28.7578125 31.3828125 C-28.59114583 28.8828125 -28.59114583 28.8828125 -28.7578125 26.3828125 C-29.8174002 25.09958703 -29.8174002 25.09958703 -32.2578125 25.2578125 C-34.6982248 25.09958703 -34.6982248 25.09958703 -35.7578125 26.3828125 Z M-2.7578125 26.3828125 C-2.92447917 28.8828125 -2.92447917 28.8828125 -2.7578125 31.3828125 C-1.6982248 32.66603797 -1.6982248 32.66603797 0.7421875 32.5078125 C3.1825998 32.66603797 3.1825998 32.66603797 4.2421875 31.3828125 C4.40885417 28.8828125 4.40885417 28.8828125 4.2421875 26.3828125 C3.1825998 25.09958703 3.1825998 25.09958703 0.7421875 25.2578125 C-1.6982248 25.09958703 -1.6982248 25.09958703 -2.7578125 26.3828125 Z M-28.7578125 37.3828125 C-29.19264044 41.46838253 -29.19264044 41.46838253 -26.4453125 44.0703125 C-22.19412151 47.72831405 -18.57158274 47.66407727 -13.1953125 47.6015625 C-8.04498041 47.13935321 -5.14183319 44.01750139 -1.7578125 40.3828125 C-2.0878125 39.3928125 -2.4178125 38.4028125 -2.7578125 37.3828125 C-4.0778125 37.3828125 -5.3978125 37.3828125 -6.7578125 37.3828125 C-7.2940625 38.0428125 -7.8303125 38.7028125 -8.3828125 39.3828125 C-11.67734077 42.15715209 -14.22151527 41.93687575 -18.421875 41.7890625 C-21.56441446 41.2425339 -22.78474537 39.81120282 -24.7578125 37.3828125 C-26.0778125 37.3828125 -27.3978125 37.3828125 -28.7578125 37.3828125 Z " fill="#4D4F57" transform="translate(51.7578125,5.6171875)"/>
</svg>
