<?xml version="1.0" encoding="UTF-8"?>
<svg version="1.1" xmlns="http://www.w3.org/2000/svg" width="72" height="72">
<path d="M0 0 C2.6080523 2.6080523 2.25291786 3.7038194 2.25878906 7.3359375 C2.26509338 8.45049316 2.27139771 9.56504883 2.27789307 10.71337891 C2.2738446 11.92171387 2.26979614 13.13004883 2.265625 14.375 C2.26753845 15.61040527 2.2694519 16.84581055 2.27142334 18.11865234 C2.2731361 21.40591407 2.26506699 24.69298787 2.25390625 27.98022461 C2.25000397 29.9979453 2.25389171 32.01549201 2.26074219 34.03320312 C2.27306004 37.89721828 2.27160978 41.76097428 2.265625 45.625 C2.26967346 46.83333496 2.27372192 48.04166992 2.27789307 49.28662109 C2.27158875 50.40117676 2.26528442 51.51573242 2.25878906 52.6640625 C2.25640228 54.14060303 2.25640228 54.14060303 2.25396729 55.64697266 C2 58 2 58 0 60 C-1.87939453 60.22705078 -1.87939453 60.22705078 -4.1328125 60.1953125 C-4.93847656 60.18886719 -5.74414062 60.18242188 -6.57421875 60.17578125 C-7.83685547 60.15064453 -7.83685547 60.15064453 -9.125 60.125 C-10.39923828 60.11146484 -10.39923828 60.11146484 -11.69921875 60.09765625 C-13.79959884 60.07405647 -15.89983444 60.03818483 -18 60 C-18.08604208 55.17017137 -17.82462369 51.50789383 -16 47 C-15.505 46.505 -15.505 46.505 -15 46 C-14.61755331 42.96592295 -14.3800822 40.92952307 -15 38 C-16.83054872 35.7191246 -19.13315073 34.19346832 -21.5 32.5 C-25.38877238 29.37796254 -28.2515123 26.87961639 -28.96875 21.77734375 C-29.39087921 11.75402044 -29.39087921 11.75402044 -26.73388672 8.40332031 C-24.72453322 6.77705111 -22.94506893 6.03167813 -20.5078125 5.17578125 C-19.63769531 4.86962891 -18.76757812 4.56347656 -17.87109375 4.24804688 C-16.96488281 3.93931641 -16.05867188 3.63058594 -15.125 3.3125 C-14.22652344 2.99216797 -13.32804687 2.67183594 -12.40234375 2.34179688 C-4.45776606 -0.41005463 -4.45776606 -0.41005463 0 0 Z " fill="#4D4F57" transform="translate(64,6)"/>
<path d="M0 0 C2.4921875 1.7578125 2.4921875 1.7578125 4.875 4.125 C7.99667108 7.14734518 11.00813851 9.78267188 14.625 12.1875 C16.5703125 13.58203125 16.5703125 13.58203125 18 15 C18.5 18.375 18.5 18.375 18 21 C17.01 21 16.02 21 15 21 C15.061875 22.175625 15.12375 23.35125 15.1875 24.5625 C15.41896527 28.96034004 13.81338834 32.07337171 12 36 C7.76417673 36.04938628 3.52850535 36.08571263 -0.70751953 36.10986328 C-2.14895547 36.11992963 -3.59037095 36.1335838 -5.03173828 36.15087891 C-7.10193934 36.17510012 -9.17187076 36.18647641 -11.2421875 36.1953125 C-13.11173096 36.21102295 -13.11173096 36.21102295 -15.01904297 36.22705078 C-18 36 -18 36 -20 34 C-21.26772861 29.68972272 -21.07544524 25.45126889 -21 21 C-21.99 21 -22.98 21 -24 21 C-24.31640625 18.28125 -24.31640625 18.28125 -24 15 C-21.83984375 12.65625 -21.83984375 12.65625 -18.9375 10.5 C-14.976229 7.49857544 -11.26250396 4.49025191 -7.73046875 0.99609375 C-5.01174451 -0.56886038 -3.07514757 -0.40615157 0 0 Z " fill="#4D4F57" transform="translate(27,30)"/>
<path d="M0 0 C5.5675 1.965 5.5675 1.965 7.1875 4.125 C7.26876896 7.19446616 6.72064029 10.11033402 6.1875 13.125 C5.99188085 14.64481033 5.80372721 16.16561076 5.625 17.6875 C5.4084375 19.3890625 5.4084375 19.3890625 5.1875 21.125 C4.5275 20.795 3.8675 20.465 3.1875 20.125 C-1.19866008 19.50939859 -3.52275215 19.32762884 -7.33984375 21.6875 C-9.56827287 23.43363087 -11.71625201 25.22284905 -13.8125 27.125 C-14.8025 26.465 -15.7925 25.805 -16.8125 25.125 C-17.24609375 22.26171875 -17.24609375 22.26171875 -17.25 18.8125 C-17.26933594 17.68199219 -17.28867187 16.55148438 -17.30859375 15.38671875 C-16.33048821 8.95586735 -11.08356304 5.20466941 -6.125 1.453125 C-3.8125 0.125 -3.8125 0.125 0 0 Z " fill="#4E5057" transform="translate(24.8125,5.875)"/>
</svg>
