<?xml version="1.0" encoding="UTF-8"?>
<svg version="1.1" xmlns="http://www.w3.org/2000/svg" width="72" height="72">
<path d="M0 0 C2.8890039 1.58659046 5.4856241 3.5324919 8.125 5.5 C8.87330078 6.04374268 9.62160156 6.58748535 10.39257812 7.14770508 C11.89721619 8.2427077 13.39825719 9.34267155 14.89550781 10.44775391 C16.76298447 11.82518043 18.63938298 13.18835879 20.5234375 14.54296875 C27.74823944 19.74823944 27.74823944 19.74823944 29 21 C29.29386153 24.72224599 29.14809171 25.77786243 27 29 C27 29.845625 27 30.69125 27 31.5625 C27 32.366875 27 33.17125 27 34 C26.34 34.66 25.68 35.32 25 36 C19.38312416 35.9453504 16.50446491 33.23938404 12.76171875 29.42578125 C12.19548294 28.86432907 11.62924713 28.30287689 11.04585266 27.72441101 C9.85571348 26.53766421 8.67182481 25.3446198 7.49389648 24.14575195 C5.69311163 22.31819506 3.86721479 20.51884378 2.03710938 18.72070312 C0.881206 17.56149554 -0.27314529 16.40073778 -1.42578125 15.23828125 C-1.9705159 14.70366776 -2.51525055 14.16905426 -3.07649231 13.61824036 C-6.36734178 10.22388529 -7.85790547 7.76678075 -8 3 C-5.94882084 -0.41863193 -3.76914238 -0.53990418 0 0 Z " fill="#4E5057" transform="translate(10,34)"/>
<path d="M0 0 C5.61687584 0.0546496 8.49553509 2.76061596 12.23828125 6.57421875 C12.80451706 7.13567093 13.37075287 7.69712311 13.95414734 8.27558899 C15.14428652 9.46233579 16.32817519 10.6553802 17.50610352 11.85424805 C19.30688837 13.68180494 21.13278521 15.48115622 22.96289062 17.27929688 C24.118794 18.43850446 25.27314529 19.59926222 26.42578125 20.76171875 C26.9705159 21.29633224 27.51525055 21.83094574 28.07649231 22.38175964 C31.36734178 25.77611471 32.85790547 28.23321925 33 33 C31.875 34.875 31.875 34.875 30 36 C27.3174487 36.52657488 25.58089218 36.31901583 23.17822266 34.99951172 C21.03054479 33.55600773 18.94969163 32.04656735 16.875 30.5 C16.12669922 29.95625732 15.37839844 29.41251465 14.60742188 28.85229492 C13.10278381 27.7572923 11.60174281 26.65732845 10.10449219 25.55224609 C8.23701553 24.17481957 6.36061702 22.81164121 4.4765625 21.45703125 C-2.74823944 16.25176056 -2.74823944 16.25176056 -4 15 C-4.29386153 11.27775401 -4.14809171 10.22213757 -2 7 C-2 6.154375 -2 5.30875 -2 4.4375 C-2 2 -2 2 0 0 Z " fill="#4E5057" transform="translate(37,2)"/>
<path d="M0 0 C4.32649192 0.56364015 7.07095832 2.09965404 10.66796875 4.52734375 C12.25448242 5.59178711 12.25448242 5.59178711 13.87304688 6.67773438 C14.41695068 7.04858154 14.96085449 7.41942871 15.52124023 7.80151367 C17.18781727 8.9377163 18.86159914 10.06256981 20.53710938 11.18554688 C28.67657425 16.67657425 28.67657425 16.67657425 31 19 C30.625 21.625 30.625 21.625 30 24 C25.2910959 24.49391459 22.9639309 23.04414373 19.11328125 20.421875 C18.57019821 20.05402893 18.02711517 19.68618286 17.46757507 19.30718994 C16.32504463 18.52925576 15.18640943 17.7455734 14.05151367 16.95654297 C12.31738493 15.75338921 10.56933483 14.57299206 8.81835938 13.39453125 C7.70743456 12.63412391 6.59737765 11.87244672 5.48828125 11.109375 C4.48321533 10.41811523 3.47814941 9.72685547 2.44262695 9.01464844 C0.09310391 7.07679095 -0.94041939 5.81137331 -2 3 C-1.34 2.01 -0.68 1.02 0 0 Z " fill="#4D4F57" transform="translate(17,28)"/>
<path d="M0 0 C6.6720632 0.66905045 11.78144663 5.17129846 17.1875 8.8125 C18.3036898 9.54545006 19.42022315 10.27787723 20.53710938 11.00976562 C21.59091797 11.71423828 22.64472656 12.41871094 23.73046875 13.14453125 C24.69364014 13.78753174 25.65681152 14.43053223 26.64916992 15.09301758 C28.96736937 16.97353019 29.9498793 18.24567905 31 21 C30.34 21.99 29.68 22.98 29 24 C24.67350808 23.43635985 21.92904168 21.90034596 18.33203125 19.47265625 C17.27435547 18.76302734 16.21667969 18.05339844 15.12695312 17.32226562 C14.58304932 16.95141846 14.03914551 16.58057129 13.47875977 16.19848633 C11.81218273 15.0622837 10.13840086 13.93743019 8.46289062 12.81445312 C0.32342575 7.32342575 0.32342575 7.32342575 -2 5 C-1.46428571 1.46428571 -1.46428571 1.46428571 0 0 Z " fill="#4D4F57" transform="translate(26,20)"/>
</svg>
